<?xml version="1.0" encoding="utf-8"?>
<svg version="1.1" xmlns="http://www.w3.org/2000/svg" xmlns:xlink="http://www.w3.org/1999/xlink" x="0px" y="0px"
	 viewBox="0 0 781.8 347.7" style="enable-background:new 0 0 781.8 347.7;" xml:space="preserve">
	<path fill="#FA3C14" d="M187.4,25.6c0.3,1.4-0.4,4-1.5,4.6
		c-22.3,12.6-37.8,31.7-50.8,53.1c-22.2,36.3-35.7,75.8-42.8,117.6c-3.7,22.1-5,44.2-2.6,66.5c0.4,3.3-0.8,4.7-3.7,5.7
		c-10.8,3.8-21.4,5.4-30.7-3.1c-7.6-6.9-9.7-16.5-10.3-26.3c-1.2-18.9,2.6-37.2,6.7-55.5l0.5-2.4c0.1-0.4,0.2-0.8,0.3-1.2
		c0.7-3.1,0.3-5.5-1.3-8.3C33,145.7,17.3,113.7,7.5,79.2c-3.3-11.5-5.3-23.3-7-35.1c-1.3-9.5-0.3-19.1,4.9-27.5
		C12,6.1,22.3,4.6,33.3,5.8c3,0.3,5.9,1.2,8.8,2l1.7,0.5c1.2,0.3,2.3,0.7,3.5,1c2.5,0.6,2.8,2,2.6,4.5
		c-2.4,39.7,4.2,78.1,16.5,115.7c0.1,0.3,0.4,0.5,1,1.2c4.5-11.8,8.5-23.1,13.1-34.3c9.9-24.4,21.1-48.2,37.1-69.3
		c6.8-9,14.4-17.2,24.4-22.8C161.4-6.4,183.4,3.8,187.4,25.6z M239,109.1c0.3,0.5,0.7,1,1.3,1.8c15.5-16.8,34-15.9,43.7-7.5
		c-2.1,6.7-4.5,13.5-6.5,20.4c-7.5,26.1-11.7,52.7-11.3,79.9c0.2,14.7,1.6,29.3,9,42.6c1.5,2.7,3.4,5.1,5.2,7.7
		c-4.5,8.9-17.4,15.1-30.7,12.7c-19.7-3.6-23.2-19-25.5-35.6l-0.1-1.1c0-0.2,0-0.4-0.1-0.5l-0.1-1.1l0,0c-0.8,1.7-1.6,3.3-2.5,5
		c-5.8,11.5-13.3,21.7-24.7,28.1c-20.7,11.6-44.1,5.2-57.5-15.4c-7.8-12.1-11.5-25.6-12.6-39.7c-2.2-28,1.9-54.8,15.9-79.5
		c9.5-16.7,22.1-30.1,40.6-36.7C206.6,81.5,225.7,88.2,239,109.1z M193.8,122.7c-4.6,4.1-8.9,9.1-11.8,14.5
		c-8.6,15.8-11.2,33.1-11.4,50.9c0,10.5,0.7,21,4.9,30.8c5.1,11.8,16.3,14.4,25,5.1c4.5-4.7,8.2-10.5,10.8-16.5
		c9.6-21.3,13.1-44.2,15-67.3c0.7-9.1-4.1-15.8-11.5-20.1C207.6,116,199.9,117.3,193.8,122.7z M502.2,186.6c0,3-0.2,6,0,8.9
		c0.7,8.9,1.5,17.8,6.3,25.6c5.4,8.7,14,10.5,21.6,3.8c4.1-3.6,7.7-8.3,10.2-13.1c11.9-23,15.6-48.1,17.9-73.5
		c0.8-9.1-4.4-15.8-11.9-20.2c-7-4.1-14.6-3-20.5,2.1c-4.9,4.3-9.4,9.6-12.6,15.3C504.8,151.3,502.2,168.7,502.2,186.6 M572.6,108.3
		c16.5-14.6,29.8-17,41.1-7.6c-2.7,9.8-6.3,19.2-7.7,29c-2.9,20.4-5,40.8-6.6,61.3c-2.6,32.2-3.1,64.6-11.3,96
		c-3.7,14.2-8.7,28-18.5,39.4c-15.3,17.9-35.4,22.6-57.7,20.9c-15-1.2-29-5.4-40.1-16.5c-12.5-12.5-13.6-30.8-2.1-42.2
		c3.2-3.2,7.4-5.3,10.4-7.4c5.1,6.6,9,12.7,14.1,17.8c6.6,6.7,15.3,9.4,24.7,9.4c14.1,0,23.1-7.8,28.6-20.3
		c5.7-12.8,7.2-26.4,8.1-40.1c0.4-6.6,0.1-13.4-0.5-20.5c-0.8,1.8-1.7,3.6-2.5,5.4c-5.9,12-13.6,22.5-25.8,28.7
		c-20.5,10.4-43.4,3.5-56.4-16.7c-7.4-11.5-11.1-24.4-12.6-37.8c-2.8-26.1,0.6-51.4,11.9-75.3c8.7-18.4,21.1-33.4,39.8-42.5
		c18.1-8.8,38.9-6.9,51.9,5.3C565.6,98.8,568.8,103.8,572.6,108.3 M668.7,187.6c-0.4,0.1-0.8,0.1-1.1,0.2c1.7,9.7,2.4,19.7,5.5,28.9
		c5,15.1,18.1,17.2,28,4.6c4.6-5.8,8.1-12.8,10.9-19.7c8-20.1,11.2-41.4,12.8-62.8c0.6-8.2-4.5-14.7-11.4-18.9
		c-6.8-4-14.2-3.3-19.9,1.5c-5.1,4.2-9.8,9.5-13,15.3C671.5,152.4,668.9,169.8,668.7,187.6 M738.4,110.5c1.6-1.5,2.9-2.8,4.2-4
		c10.4-9.6,24.9-12.1,35.9-6.4c3.1,1.6,4,3.2,2.7,6.9c-11.4,31.8-17.4,64.7-16.6,98.6c0.3,14.1,2,28.1,9.2,40.7
		c1.5,2.7,3.5,5.1,5.2,7.6c-7.4,10.1-21,15.2-32.8,12.3c-12.4-3.1-18.6-12-21.3-23.8c-1.1-4.8-1.5-9.7-2.2-14.2
		c-4.3,6.6-8.2,13.8-13.2,20.2c-14.1,18.1-36.9,23.5-55.3,13.4c-12.9-7.1-20.8-18.7-24.6-32.4c-11.8-42.6-6.1-82.6,21.4-117.9
		c13.2-17,31-26.7,53.5-24.9c13.7,1.1,23.5,8.4,31,19.5C736.5,107.4,737.3,108.8,738.4,110.5 M444.3,254.3
		c-11.1,13.5-32.1,16.8-45.3,7.2c-7.9-5.7-10.5-14.3-11.7-23.5c-1.8-13.2,0.5-26.1,2.3-39c2.6-18.6,5.5-37.2,7.9-55.9
		c0.5-3.9,0.1-8.1-0.8-12c-1.3-5.7-5.4-7.9-10.5-5c-4.5,2.5-8.8,5.8-12.2,9.7c-14.5,16.5-22.9,36.4-28.5,57.5
		c-3.4,12.7-5.3,25.6-4.7,38.8c0.2,3.6-1,5.6-4.3,6.5c-5.5,1.4-11,3.5-16.5,3.8c-13.6,0.6-23-7.8-23.3-21.5
		c-0.2-11.3,0.7-22.7,2.4-33.9c2.8-19.2,7-38.2,9.7-57.5c1.1-7.8-0.5-16-0.8-24.1c0-1.4,0-3.5,0.8-4c7.6-4.8,15.7-8.2,24.8-7.2
		c10.9,1.3,17,8.2,17.3,20c0.1,5.8-0.7,11.7-1.2,18.2c2.9-4.2,5.4-8,8.2-11.7c8.8-12.1,18.5-23.5,31.8-30.8
		c12.5-6.8,25.5-8.7,38,0.2c9,6.4,13.6,16.1,14,26.8c0.5,13-0.1,26.1-1.4,39.1c-2.2,21.8-7.4,43.3-7,65.4
		C433.5,235.9,435.7,242.7,444.3,254.3"/>
</svg>
